<svg id="visual" viewBox="0 0 900 600" width="900" height="600" xmlns="http://www.w3.org/2000/svg" xmlns:xlink="http://www.w3.org/1999/xlink" version="1.1"><path d="M0 420L18.8 419.5C37.7 419 75.3 418 112.8 417C150.3 416 187.7 415 225.2 414.3C262.7 413.7 300.3 413.3 337.8 411.8C375.3 410.3 412.7 407.7 450.2 415.2C487.7 422.7 525.3 440.3 562.8 450.3C600.3 460.3 637.7 462.7 675.2 462.8C712.7 463 750.3 461 787.8 455.3C825.3 449.7 862.7 440.3 881.3 435.7L900 431L900 601L881.3 601C862.7 601 825.3 601 787.8 601C750.3 601 712.7 601 675.2 601C637.7 601 600.3 601 562.8 601C525.3 601 487.7 601 450.2 601C412.7 601 375.3 601 337.8 601C300.3 601 262.7 601 225.2 601C187.7 601 150.3 601 112.8 601C75.3 601 37.7 601 18.8 601L0 601Z" fill="#fa7268"></path><path d="M0 493L18.8 492.8C37.7 492.7 75.3 492.3 112.8 489.5C150.3 486.7 187.7 481.3 225.2 482.5C262.7 483.7 300.3 491.3 337.8 486.2C375.3 481 412.7 463 450.2 461.5C487.7 460 525.3 475 562.8 481.7C600.3 488.3 637.7 486.7 675.2 486.2C712.7 485.7 750.3 486.3 787.8 488.5C825.3 490.7 862.7 494.3 881.3 496.2L900 498L900 601L881.3 601C862.7 601 825.3 601 787.8 601C750.3 601 712.7 601 675.2 601C637.7 601 600.3 601 562.8 601C525.3 601 487.7 601 450.2 601C412.7 601 375.3 601 337.8 601C300.3 601 262.7 601 225.2 601C187.7 601 150.3 601 112.8 601C75.3 601 37.7 601 18.8 601L0 601Z" fill="#eb5967"></path><path d="M0 505L18.8 502.5C37.7 500 75.3 495 112.8 495.8C150.3 496.7 187.7 503.3 225.2 509.3C262.7 515.3 300.3 520.7 337.8 516.3C375.3 512 412.7 498 450.2 499.2C487.7 500.3 525.3 516.7 562.8 526C600.3 535.3 637.7 537.7 675.2 538C712.7 538.3 750.3 536.7 787.8 535.7C825.3 534.7 862.7 534.3 881.3 534.2L900 534L900 601L881.3 601C862.7 601 825.3 601 787.8 601C750.3 601 712.7 601 675.2 601C637.7 601 600.3 601 562.8 601C525.3 601 487.7 601 450.2 601C412.7 601 375.3 601 337.8 601C300.3 601 262.7 601 225.2 601C187.7 601 150.3 601 112.8 601C75.3 601 37.7 601 18.8 601L0 601Z" fill="#da3f67"></path><path d="M0 550L18.8 547.8C37.7 545.7 75.3 541.3 112.8 543.8C150.3 546.3 187.7 555.7 225.2 558.8C262.7 562 300.3 559 337.8 559.5C375.3 560 412.7 564 450.2 562.2C487.7 560.3 525.3 552.7 562.8 549.3C600.3 546 637.7 547 675.2 544.3C712.7 541.7 750.3 535.3 787.8 535.8C825.3 536.3 862.7 543.7 881.3 547.3L900 551L900 601L881.3 601C862.7 601 825.3 601 787.8 601C750.3 601 712.7 601 675.2 601C637.7 601 600.3 601 562.8 601C525.3 601 487.7 601 450.2 601C412.7 601 375.3 601 337.8 601C300.3 601 262.7 601 225.2 601C187.7 601 150.3 601 112.8 601C75.3 601 37.7 601 18.8 601L0 601Z" fill="#c62368"></path></svg>